<?xml version="1.0" standalone="no"?><!DOCTYPE svg PUBLIC "-//W3C//DTD SVG 1.1//EN" "http://www.w3.org/Graphics/SVG/1.1/DTD/svg11.dtd"><svg t="1577171048502" class="icon" viewBox="0 0 1024 1024" version="1.1" xmlns="http://www.w3.org/2000/svg" p-id="14043" xmlns:xlink="http://www.w3.org/1999/xlink" width="48" height="48"><defs><style type="text/css"></style></defs><path d="M1021.296 798.414H2.704V196.24h942.8c41.92 0 75.944 33.596 75.944 74.992v527.182h-0.152zM639.288 196.24c0-69.44-56.96-125.682-127.286-125.682H2.706V196.24h636.58z" fill="#DB8916" p-id="14044"></path><path d="M129.992 630.586V253.534h764.02v377.052z" fill="#FFFFFF" p-id="14045"></path><path d="M1021.296 878.054V389.716c0-34.646-28.554-62.84-63.642-62.84H66.348c-35.088 0-63.642 28.194-63.642 62.84v488.188c0 42.746 35.086 77.54 78.528 77.54H942.92c43.29 0.15 78.378-34.644 78.378-77.39z" fill="#FFA818" p-id="14046"></path></svg>